# xmcd CD database file
#
# Track frame offsets:
#	150
#	22141
#	53588
#	71694
#	101591
#	117937
#	137239
#	158663
#	175478
#	203291
#	225095
#	257060
#	272737
#	292480
#
# Disc length: 4200 seconds
#
# Revision: 0
# Processed by: cddbd v1.5.1PL2 Copyright (c) Steve Scherf et al.
# Submitted via: Feurio! 1.68 - http://www.feurio.com
#
DISCID=c810660e
DTITLE=Eric Burdon and War. - Black Man's Burdon II   - Guilty -
DYEAR=1900
DGENRE=
TTITLE0=Eric Burdon - Beautiful New Born Child
TTITLE1=Eric Burdon - Bare Back Ride
TTITLE2=Eric Burdon - Home Cookin'
TTITLE3=Eric Burdon - They Can't Take Away Our Music
TTITLE4=Eric Burdon - Driftin'   Once Upon A Time
TTITLE5=Eric Burdon - Steam Roller
TTITLE6=Eric Burdon - The Laws Must Change
TTITLE7=Eric Burdon - Have Mercy Judge
TTITLE8=Eric Burdon - Goin' Down Slow
TTITLE9=Eric Burdon - Soledad
TTITLE10=Eric Burdon - Home Dream
TTITLE11=Eric Burdon - Wicked Wicked Man
TTITLE12=Eric Burdon - Headin' For Home
TTITLE13=Eric Burdon - The Time Has Come
EXTD=
EXTT0=
EXTT1=
EXTT2=
EXTT3=
EXTT4=
EXTT5=
EXTT6=
EXTT7=
EXTT8=
EXTT9=
EXTT10=
EXTT11=
EXTT12=
EXTT13=
PLAYORDER=
